<mxfile host="app.diagrams.net" agent="Mozilla/5.0 (Windows NT 10.0; Win64; x64) AppleWebKit/537.36 (KHTML, like Gecko) Chrome/130.0.0.0 Safari/537.36 Edg/130.0.0.0" version="24.8.2">
  <diagram id="C5RBs43oDa-KdzZeNtuy" name="Page-1">
    <mxGraphModel dx="1773" dy="601" grid="1" gridSize="10" guides="1" tooltips="1" connect="1" arrows="1" fold="1" page="1" pageScale="1" pageWidth="827" pageHeight="1169" math="0" shadow="0">
      <root>
        <mxCell id="WIyWlLk6GJQsqaUBKTNV-0" />
        <mxCell id="WIyWlLk6GJQsqaUBKTNV-1" parent="WIyWlLk6GJQsqaUBKTNV-0" />
        <mxCell id="3174z3NiLi31jxfqu7SJ-2" value="" style="edgeStyle=orthogonalEdgeStyle;rounded=0;orthogonalLoop=1;jettySize=auto;html=1;" edge="1" parent="WIyWlLk6GJQsqaUBKTNV-1" source="3174z3NiLi31jxfqu7SJ-0" target="3174z3NiLi31jxfqu7SJ-1">
          <mxGeometry relative="1" as="geometry" />
        </mxCell>
        <mxCell id="3174z3NiLi31jxfqu7SJ-0" value="开始" style="strokeWidth=2;html=1;shape=mxgraph.flowchart.start_1;whiteSpace=wrap;" vertex="1" parent="WIyWlLk6GJQsqaUBKTNV-1">
          <mxGeometry x="340" y="105" width="80" height="50" as="geometry" />
        </mxCell>
        <mxCell id="3174z3NiLi31jxfqu7SJ-4" value="" style="edgeStyle=orthogonalEdgeStyle;rounded=0;orthogonalLoop=1;jettySize=auto;html=1;" edge="1" parent="WIyWlLk6GJQsqaUBKTNV-1" source="3174z3NiLi31jxfqu7SJ-1" target="3174z3NiLi31jxfqu7SJ-3">
          <mxGeometry relative="1" as="geometry" />
        </mxCell>
        <mxCell id="3174z3NiLi31jxfqu7SJ-1" value="创建一个Person对象" style="whiteSpace=wrap;html=1;strokeWidth=2;" vertex="1" parent="WIyWlLk6GJQsqaUBKTNV-1">
          <mxGeometry x="320" y="190" width="120" height="60" as="geometry" />
        </mxCell>
        <mxCell id="3174z3NiLi31jxfqu7SJ-6" value="" style="edgeStyle=orthogonalEdgeStyle;rounded=0;orthogonalLoop=1;jettySize=auto;html=1;" edge="1" parent="WIyWlLk6GJQsqaUBKTNV-1" source="3174z3NiLi31jxfqu7SJ-3" target="3174z3NiLi31jxfqu7SJ-5">
          <mxGeometry relative="1" as="geometry" />
        </mxCell>
        <mxCell id="3174z3NiLi31jxfqu7SJ-9" value="" style="edgeStyle=orthogonalEdgeStyle;rounded=0;orthogonalLoop=1;jettySize=auto;html=1;" edge="1" parent="WIyWlLk6GJQsqaUBKTNV-1" source="3174z3NiLi31jxfqu7SJ-3" target="3174z3NiLi31jxfqu7SJ-8">
          <mxGeometry relative="1" as="geometry" />
        </mxCell>
        <mxCell id="3174z3NiLi31jxfqu7SJ-3" value="Person == Null&lt;div&gt;||&amp;nbsp;&amp;nbsp;&lt;span style=&quot;background-color: initial;&quot;&gt;salary &amp;lt; 0&lt;/span&gt;&lt;/div&gt;&lt;div&gt;？&lt;/div&gt;" style="rhombus;whiteSpace=wrap;html=1;strokeWidth=2;" vertex="1" parent="WIyWlLk6GJQsqaUBKTNV-1">
          <mxGeometry x="290" y="283" width="180" height="80" as="geometry" />
        </mxCell>
        <mxCell id="3174z3NiLi31jxfqu7SJ-27" style="edgeStyle=orthogonalEdgeStyle;rounded=0;orthogonalLoop=1;jettySize=auto;html=1;exitX=0.5;exitY=1;exitDx=0;exitDy=0;entryX=1;entryY=0.5;entryDx=0;entryDy=0;" edge="1" parent="WIyWlLk6GJQsqaUBKTNV-1" source="3174z3NiLi31jxfqu7SJ-5" target="3174z3NiLi31jxfqu7SJ-24">
          <mxGeometry relative="1" as="geometry" />
        </mxCell>
        <mxCell id="3174z3NiLi31jxfqu7SJ-5" value="抛出异常错误" style="whiteSpace=wrap;html=1;strokeWidth=2;" vertex="1" parent="WIyWlLk6GJQsqaUBKTNV-1">
          <mxGeometry x="530" y="293" width="120" height="60" as="geometry" />
        </mxCell>
        <mxCell id="3174z3NiLi31jxfqu7SJ-7" value="Yes" style="text;html=1;align=center;verticalAlign=middle;resizable=0;points=[];autosize=1;strokeColor=none;fillColor=none;" vertex="1" parent="WIyWlLk6GJQsqaUBKTNV-1">
          <mxGeometry x="460" y="293" width="40" height="30" as="geometry" />
        </mxCell>
        <mxCell id="3174z3NiLi31jxfqu7SJ-11" value="" style="edgeStyle=orthogonalEdgeStyle;rounded=0;orthogonalLoop=1;jettySize=auto;html=1;" edge="1" parent="WIyWlLk6GJQsqaUBKTNV-1" source="3174z3NiLi31jxfqu7SJ-8" target="3174z3NiLi31jxfqu7SJ-10">
          <mxGeometry relative="1" as="geometry" />
        </mxCell>
        <mxCell id="3174z3NiLi31jxfqu7SJ-8" value="初始化应纳税所得额&lt;div&gt;= 月收入 - 免征额&lt;/div&gt;" style="whiteSpace=wrap;html=1;strokeWidth=2;" vertex="1" parent="WIyWlLk6GJQsqaUBKTNV-1">
          <mxGeometry x="320" y="400" width="120" height="60" as="geometry" />
        </mxCell>
        <mxCell id="3174z3NiLi31jxfqu7SJ-13" value="" style="edgeStyle=orthogonalEdgeStyle;rounded=0;orthogonalLoop=1;jettySize=auto;html=1;" edge="1" parent="WIyWlLk6GJQsqaUBKTNV-1" source="3174z3NiLi31jxfqu7SJ-10" target="3174z3NiLi31jxfqu7SJ-12">
          <mxGeometry relative="1" as="geometry" />
        </mxCell>
        <mxCell id="3174z3NiLi31jxfqu7SJ-10" value="应纳税所得额 -&amp;nbsp;&lt;div&gt;专项扣除&lt;/div&gt;" style="whiteSpace=wrap;html=1;strokeWidth=2;" vertex="1" parent="WIyWlLk6GJQsqaUBKTNV-1">
          <mxGeometry x="160" y="400" width="120" height="60" as="geometry" />
        </mxCell>
        <mxCell id="3174z3NiLi31jxfqu7SJ-15" value="" style="edgeStyle=orthogonalEdgeStyle;rounded=0;orthogonalLoop=1;jettySize=auto;html=1;" edge="1" parent="WIyWlLk6GJQsqaUBKTNV-1" source="3174z3NiLi31jxfqu7SJ-12" target="3174z3NiLi31jxfqu7SJ-14">
          <mxGeometry relative="1" as="geometry" />
        </mxCell>
        <mxCell id="3174z3NiLi31jxfqu7SJ-12" value="应纳税所得额 -&amp;nbsp;&lt;div&gt;专项附加扣除&lt;/div&gt;" style="whiteSpace=wrap;html=1;strokeWidth=2;" vertex="1" parent="WIyWlLk6GJQsqaUBKTNV-1">
          <mxGeometry x="-10" y="400" width="120" height="60" as="geometry" />
        </mxCell>
        <mxCell id="3174z3NiLi31jxfqu7SJ-17" value="" style="edgeStyle=orthogonalEdgeStyle;rounded=0;orthogonalLoop=1;jettySize=auto;html=1;" edge="1" parent="WIyWlLk6GJQsqaUBKTNV-1" source="3174z3NiLi31jxfqu7SJ-14" target="3174z3NiLi31jxfqu7SJ-16">
          <mxGeometry relative="1" as="geometry" />
        </mxCell>
        <mxCell id="3174z3NiLi31jxfqu7SJ-14" value="应纳税所得额 -&amp;nbsp;&lt;div&gt;其他扣除&lt;/div&gt;" style="whiteSpace=wrap;html=1;strokeWidth=2;" vertex="1" parent="WIyWlLk6GJQsqaUBKTNV-1">
          <mxGeometry x="-10" y="500" width="120" height="60" as="geometry" />
        </mxCell>
        <mxCell id="3174z3NiLi31jxfqu7SJ-19" value="" style="edgeStyle=orthogonalEdgeStyle;rounded=0;orthogonalLoop=1;jettySize=auto;html=1;" edge="1" parent="WIyWlLk6GJQsqaUBKTNV-1" source="3174z3NiLi31jxfqu7SJ-16" target="3174z3NiLi31jxfqu7SJ-18">
          <mxGeometry relative="1" as="geometry" />
        </mxCell>
        <mxCell id="3174z3NiLi31jxfqu7SJ-16" value="得到最终应纳税所得额" style="whiteSpace=wrap;html=1;strokeWidth=2;" vertex="1" parent="WIyWlLk6GJQsqaUBKTNV-1">
          <mxGeometry x="155" y="500" width="130" height="60" as="geometry" />
        </mxCell>
        <mxCell id="3174z3NiLi31jxfqu7SJ-21" value="" style="edgeStyle=orthogonalEdgeStyle;rounded=0;orthogonalLoop=1;jettySize=auto;html=1;" edge="1" parent="WIyWlLk6GJQsqaUBKTNV-1" source="3174z3NiLi31jxfqu7SJ-18" target="3174z3NiLi31jxfqu7SJ-20">
          <mxGeometry relative="1" as="geometry" />
        </mxCell>
        <mxCell id="3174z3NiLi31jxfqu7SJ-18" value="计算个人所得税：&lt;div&gt;应纳税所得额×税率&lt;/div&gt;" style="whiteSpace=wrap;html=1;strokeWidth=2;" vertex="1" parent="WIyWlLk6GJQsqaUBKTNV-1">
          <mxGeometry x="320" y="500" width="120" height="60" as="geometry" />
        </mxCell>
        <mxCell id="3174z3NiLi31jxfqu7SJ-25" value="" style="edgeStyle=orthogonalEdgeStyle;rounded=0;orthogonalLoop=1;jettySize=auto;html=1;" edge="1" parent="WIyWlLk6GJQsqaUBKTNV-1" source="3174z3NiLi31jxfqu7SJ-20" target="3174z3NiLi31jxfqu7SJ-24">
          <mxGeometry relative="1" as="geometry" />
        </mxCell>
        <mxCell id="3174z3NiLi31jxfqu7SJ-20" value="返回取整的个人所得税" style="whiteSpace=wrap;html=1;strokeWidth=2;" vertex="1" parent="WIyWlLk6GJQsqaUBKTNV-1">
          <mxGeometry x="315" y="600" width="130" height="60" as="geometry" />
        </mxCell>
        <mxCell id="3174z3NiLi31jxfqu7SJ-24" value="结束" style="ellipse;whiteSpace=wrap;html=1;strokeWidth=2;" vertex="1" parent="WIyWlLk6GJQsqaUBKTNV-1">
          <mxGeometry x="340" y="700" width="80" height="50" as="geometry" />
        </mxCell>
        <mxCell id="3174z3NiLi31jxfqu7SJ-26" value="No" style="text;html=1;align=center;verticalAlign=middle;resizable=0;points=[];autosize=1;strokeColor=none;fillColor=none;" vertex="1" parent="WIyWlLk6GJQsqaUBKTNV-1">
          <mxGeometry x="376" y="355" width="40" height="30" as="geometry" />
        </mxCell>
      </root>
    </mxGraphModel>
  </diagram>
</mxfile>
